<svg xmlns="http://www.w3.org/2000/svg" width="512" height="512" viewBox="0 0 512 512"><rect width="448" height="256" x="16" y="184" fill="#e0e0e2"/><path fill="#acabb1" d="M152.517,312.724l-33.234,33.235,12.2,29.869-16.828,16.827L89.414,350.586,47.345,325.345l16.827-16.828,29.869,12.2,33.235-33.234L81,249.621l16.828-16.828,54.689,29.448L177.759,237A17.848,17.848,0,0,1,203,262.241l-25.241,25.242,29.448,54.689L190.379,359Z"/><rect width="120" height="48" x="240" y="248" fill="#ff9811"/><rect width="32" height="256" x="464" y="184" fill="#ff9811"/><polyline fill="#57565c" points="56 184 408 80 440 184"/><path d="M392 264a8 8 0 008-8V232a8 8 0 00-16 0v24A8 8 0 00392 264zM392 312a8 8 0 008-8V280a8 8 0 00-16 0v24A8 8 0 00392 312zM392 408a8 8 0 008-8V376a8 8 0 00-16 0v24A8 8 0 00392 408zM392 360a8 8 0 008-8V328a8 8 0 00-16 0v24A8 8 0 00392 360zM216.228 249.61A25.849 25.849 0 00172.1 231.343l-21.033 21.033L101.62 225.749a8 8 0 00-9.45 1.388L75.343 243.965a8 8 0 00.592 11.847l39.433 32.264L92.144 311.3 67.2 301.111a8 8 0 00-8.681 1.749L41.688 319.688a8 8 0 001.541 12.517l40.354 24.212L107.8 396.771a8 8 0 0012.517 1.541l16.828-16.829a8 8 0 001.749-8.68L128.7 347.856l23.225-23.224 32.264 39.433a8 8 0 0011.847.592l16.828-16.827a8 8 0 001.388-9.45l-26.627-49.449L208.657 267.9A25.724 25.724 0 00216.228 249.61zm-18.885 6.974L172.1 281.825a8 8 0 00-1.387 9.45l26.626 49.45-6.368 6.368-32.264-39.434a8 8 0 00-11.849-.592L113.626 340.3a8 8 0 00-1.749 8.681l10.189 24.947-5.823 5.823L96.274 346.47a7.99 7.99 0 00-2.744-2.744L60.247 323.757l5.823-5.823 24.946 10.189a8 8 0 008.682-1.749l33.235-33.234a8 8 0 00-.592-11.849L92.907 249.027l6.368-6.368 49.45 26.626a8 8 0 009.45-1.387l25.241-25.241a9.848 9.848 0 1113.927 13.927zM360 312H240a8 8 0 000 16H360a8 8 0 000-16zM360 336H240a8 8 0 000 16H360a8 8 0 000-16zM280 360H240a8 8 0 000 16h40a8 8 0 000-16zM312 360h-8a8 8 0 000 16h8a8 8 0 000-16zM360 240H240a8 8 0 00-8 8v48a8 8 0 008 8H360a8 8 0 008-8V248A8 8 0 00360 240zm-8 48H248V256H352z"/><path d="M496,176H445.91L415.65,77.65a8,8,0,0,0-9.92-5.32L54.84,176H16a8,8,0,0,0-8,8V440a8,8,0,0,0,8,8H496a8,8,0,0,0,8-8V184A8,8,0,0,0,496,176ZM402.68,89.91,429.17,176H111.31ZM456,432H400v-8a8,8,0,0,0-16,0v8H24V192H384v16a8,8,0,0,0,16,0V192h56Zm32,0H472V192h16Z"/></svg>